<?xml version="1.0" encoding="UTF-8"?>
<svg width="51px" height="84px" viewBox="0 0 51 84" version="1.1" xmlns="http://www.w3.org/2000/svg" xmlns:xlink="http://www.w3.org/1999/xlink">
    <!-- Generator: Sketch 48.2 (47327) - http://www.bohemiancoding.com/sketch -->
    <title>exports/source-quant</title>
    <desc>Created with Sketch.</desc>
    <defs>
        <path d="M58.9510501,27.3724276 C59.3133734,26.4459592 59.4993494,25.4596109 59.4993494,24.4644498 C59.4993494,20.0654176 55.9430215,16.4992974 51.5560686,16.4992974 L-8.55388828,16.4992974 C-9.54631678,16.4992974 -10.5299567,16.6857855 -11.453881,17.0491064 C-15.5380166,18.6551382 -17.5504916,23.2770465 -15.9488698,27.3724276 L-3.38467202,59.4993494 C4.15235196,55.5631102 12.7199381,53.338127 21.80577,53.338127 C30.6884492,53.338127 39.0757989,55.4647245 46.4891049,59.2378874 L58.9510501,27.3724276 Z" id="path-1"></path>
        <filter x="-14.5%" y="-16.3%" width="128.9%" height="151.2%" filterUnits="objectBoundingBox" id="filter-2">
            <feOffset dx="0" dy="2" in="SourceAlpha" result="shadowOffsetOuter1"></feOffset>
            <feGaussianBlur stdDeviation="2" in="shadowOffsetOuter1" result="shadowBlurOuter1"></feGaussianBlur>
            <feComposite in="shadowBlurOuter1" in2="SourceAlpha" operator="out" result="shadowBlurOuter1"></feComposite>
            <feColorMatrix values="0 0 0 0 0   0 0 0 0 0   0 0 0 0 0  0 0 0 0.23 0" type="matrix" in="shadowBlurOuter1" result="shadowMatrixOuter1"></feColorMatrix>
            <feOffset dx="0" dy="2" in="SourceAlpha" result="shadowOffsetOuter2"></feOffset>
            <feGaussianBlur stdDeviation="2" in="shadowOffsetOuter2" result="shadowBlurOuter2"></feGaussianBlur>
            <feComposite in="shadowBlurOuter2" in2="SourceAlpha" operator="out" result="shadowBlurOuter2"></feComposite>
            <feColorMatrix values="0 0 0 0 0   0 0 0 0 0   0 0 0 0 0  0 0 0 0.16 0" type="matrix" in="shadowBlurOuter2" result="shadowMatrixOuter2"></feColorMatrix>
            <feMerge>
                <feMergeNode in="shadowMatrixOuter1"></feMergeNode>
                <feMergeNode in="shadowMatrixOuter2"></feMergeNode>
            </feMerge>
        </filter>
    </defs>
    <g id="body---Scene-2" stroke="none" stroke-width="1" fill="none" fill-rule="evenodd" transform="translate(-636.000000, -255.000000)">
        <g id="Group">
            <g id="exports/source-quant" transform="translate(638.000000, 259.000000)">
                <g id="Combined-Shape-Copy-3" transform="translate(21.500026, 37.999323) rotate(-90.000000) translate(-21.500026, -37.999323) ">
                    <use fill="black" fill-opacity="1" filter="url(#filter-2)" xlink:href="#path-1"></use>
                    <use fill="#1A1F23" fill-rule="evenodd" xlink:href="#path-1"></use>
                    <path stroke="#FFFFFF" stroke-width="1" d="M-3.12100392,58.8007508 C4.53500937,54.9005935 13.0230757,52.838127 21.80577,52.838127 C30.392556,52.838127 38.6987529,54.8094629 46.2233284,58.5446802 L58.4853933,27.1903185 C58.825019,26.3218883 58.9993494,25.397304 58.9993494,24.4644498 C58.9993494,20.3412527 55.6665708,16.9992974 51.5560686,16.9992974 L-8.55388828,16.9992974 C-9.4836839,16.9992974 -10.4052547,17.1740178 -11.2709019,17.514422 C-15.0981805,19.0194483 -16.9844735,23.3515633 -15.483213,27.1903185 L-3.1210039,58.8007509 Z"></path>
                </g>
            </g>
        </g>
    </g>
</svg>