<?xml version="1.0" encoding="UTF-8"?>
<svg width="508px" height="385px" viewBox="0 0 508 385" version="1.1" xmlns="http://www.w3.org/2000/svg" xmlns:xlink="http://www.w3.org/1999/xlink">
    <!-- Generator: Sketch 48.2 (47327) - http://www.bohemiancoding.com/sketch -->
    <title>exports/source-remesh</title>
    <desc>Created with Sketch.</desc>
    <defs>
        <path d="M130.788496,133.160713 C122.468324,139.342619 112.160836,143.000121 100.99911,143.000121 C73.3853639,143.000121 51,120.614331 51,93.0000604 C51,65.3857896 73.3853639,43 100.99911,43 C112.063301,43 122.288117,46.5938595 130.569927,52.6779265 C141.079278,44.0435132 156.365443,31.4845018 176.428421,15.0008923 C178.946474,12.9320769 182.664857,13.2962627 184.733814,15.8144336 C186.80257,18.3324747 186.438402,22.0508076 183.920423,24.1195626 C164.510585,40.0665564 149.624069,52.297219 139.260875,60.8115505 C143.198121,65.487005 146.294098,70.8942825 148.315525,76.800098 C159.77862,72.7618943 176.052411,67.028985 197.136897,59.6013701 C200.21067,58.5185443 203.580248,60.1325288 204.663167,63.2064606 C205.74594,66.2802013 204.13199,69.6497387 201.058308,70.7325329 C179.205591,78.4307892 162.450511,84.3332546 150.793067,88.4399289 C150.928849,89.9417968 150.99822,91.4628272 150.99822,93.0000604 C150.99822,94.4347406 150.937796,95.8553079 150.819355,97.259356 L201.058308,114.957492 C204.13199,116.040286 205.74594,119.409823 204.663167,122.483564 C203.580248,125.557496 200.21067,127.17148 197.136897,126.088654 L148.409437,108.922986 C146.419152,114.851687 143.347988,120.284259 139.430098,124.986547 L183.92042,161.5395 C186.438399,163.608255 186.802567,167.326588 184.733811,169.844629 C182.664854,172.3628 178.946471,172.726985 176.428418,170.65817 L130.788496,133.160713 Z M138.450134,10.8731301 L125.988189,42.7385899 C118.574883,38.9654271 110.187533,36.8388296 101.304854,36.8388296 C92.2190219,36.8388296 83.6514357,39.0638127 76.1144118,43.000052 L63.550214,10.8731301 C61.9485922,6.77774908 63.9610672,2.15584077 68.0452027,0.54980899 C68.9691271,0.186488076 69.952767,0 70.9451955,0 L131.055152,0 C135.442105,0 138.998433,3.56612017 138.998433,7.96515234 C138.998433,8.96031346 138.812457,9.94666179 138.450134,10.8731301 Z" id="path-1"></path>
        <filter x="-7.1%" y="-4.1%" width="114.3%" height="112.8%" filterUnits="objectBoundingBox" id="filter-2">
            <feOffset dx="0" dy="2" in="SourceAlpha" result="shadowOffsetOuter1"></feOffset>
            <feGaussianBlur stdDeviation="2" in="shadowOffsetOuter1" result="shadowBlurOuter1"></feGaussianBlur>
            <feComposite in="shadowBlurOuter1" in2="SourceAlpha" operator="out" result="shadowBlurOuter1"></feComposite>
            <feColorMatrix values="0 0 0 0 0   0 0 0 0 0   0 0 0 0 0  0 0 0 0.23 0" type="matrix" in="shadowBlurOuter1" result="shadowMatrixOuter1"></feColorMatrix>
            <feOffset dx="0" dy="2" in="SourceAlpha" result="shadowOffsetOuter2"></feOffset>
            <feGaussianBlur stdDeviation="2" in="shadowOffsetOuter2" result="shadowBlurOuter2"></feGaussianBlur>
            <feComposite in="shadowBlurOuter2" in2="SourceAlpha" operator="out" result="shadowBlurOuter2"></feComposite>
            <feColorMatrix values="0 0 0 0 0   0 0 0 0 0   0 0 0 0 0  0 0 0 0.16 0" type="matrix" in="shadowBlurOuter2" result="shadowMatrixOuter2"></feColorMatrix>
            <feMerge>
                <feMergeNode in="shadowMatrixOuter1"></feMergeNode>
                <feMergeNode in="shadowMatrixOuter2"></feMergeNode>
            </feMerge>
        </filter>
        <path d="M44.9968924,16.1084704 C44.9968924,12.8499903 42.3553725,10.2084704 39.0968924,10.2084704 L22.2248937,10.2084704 L22.2248937,2 C22.2248937,0.8954305 21.3294632,0 20.2248937,0 C19.7816994,0 19.3510583,0.147209428 19.0006043,0.418508436 L0.775805777,14.5269788 C-0.0976278966,15.2031351 -0.257552772,16.4593261 0.41860357,17.3327597 C0.522094923,17.466446 0.642119487,17.5864706 0.775805777,17.6899619 L19.0006043,31.7984323 C19.874038,32.4745886 21.1302289,32.3146638 21.8063852,31.4412301 C22.0776842,31.0907761 22.2248937,30.660135 22.2248937,30.2169407 L22.2248937,22.0084704 L39.0968924,22.0084704 C42.3553725,22.0084704 44.9968924,19.3669504 44.9968924,16.1084704 Z" id="path-3"></path>
        <filter x="-24.4%" y="-21.7%" width="148.9%" height="168.3%" filterUnits="objectBoundingBox" id="filter-4">
            <feOffset dx="0" dy="2" in="SourceAlpha" result="shadowOffsetOuter1"></feOffset>
            <feGaussianBlur stdDeviation="2" in="shadowOffsetOuter1" result="shadowBlurOuter1"></feGaussianBlur>
            <feComposite in="shadowBlurOuter1" in2="SourceAlpha" operator="out" result="shadowBlurOuter1"></feComposite>
            <feColorMatrix values="0 0 0 0 0   0 0 0 0 0   0 0 0 0 0  0 0 0 0.23 0" type="matrix" in="shadowBlurOuter1" result="shadowMatrixOuter1"></feColorMatrix>
            <feOffset dx="0" dy="2" in="SourceAlpha" result="shadowOffsetOuter2"></feOffset>
            <feGaussianBlur stdDeviation="2" in="shadowOffsetOuter2" result="shadowBlurOuter2"></feGaussianBlur>
            <feComposite in="shadowBlurOuter2" in2="SourceAlpha" operator="out" result="shadowBlurOuter2"></feComposite>
            <feColorMatrix values="0 0 0 0 0   0 0 0 0 0   0 0 0 0 0  0 0 0 0.16 0" type="matrix" in="shadowBlurOuter2" result="shadowMatrixOuter2"></feColorMatrix>
            <feMerge>
                <feMergeNode in="shadowMatrixOuter1"></feMergeNode>
                <feMergeNode in="shadowMatrixOuter2"></feMergeNode>
            </feMerge>
        </filter>
        <linearGradient x1="50%" y1="0%" x2="50%" y2="100%" id="linearGradient-5">
            <stop stop-color="#37AEFF" offset="0%"></stop>
            <stop stop-color="#37AE00" offset="100%"></stop>
        </linearGradient>
        <path d="M39.9992878,80.0000967 C17.9082911,80.0000967 0,62.091465 0,40.0000483 C0,17.9086316 17.9082911,0 39.9992878,0 C62.0902845,0 79.9985756,17.9086316 79.9985756,40.0000483 C79.9985756,62.091465 62.0902845,80.0000967 39.9992878,80.0000967 Z M40.285178,49.959936 C40.285178,50.2799376 40.3426775,50.5774346 40.457678,50.852436 C40.5726786,51.1274373 40.732677,51.364935 40.937678,51.564936 C41.1426791,51.764937 41.3851766,51.9224354 41.665178,52.037436 C41.9451794,52.1524365 42.2451764,52.209936 42.565178,52.209936 C42.8751796,52.209936 43.1701766,52.1524365 43.450178,52.037436 C43.7301794,51.9224354 43.970177,51.764937 44.170178,51.564936 C44.370179,51.364935 44.5301774,51.1274373 44.650178,50.852436 C44.7701786,50.5774346 44.830178,50.2799376 44.830178,49.959936 C44.830178,49.6499344 44.7701786,49.3549374 44.650178,49.074936 C44.5301774,48.7949346 44.370179,48.554937 44.170178,48.354936 C43.970177,48.154935 43.7301794,47.9949366 43.450178,47.874936 C43.1701766,47.7549354 42.8751796,47.694936 42.565178,47.694936 C42.2451764,47.694936 41.9451794,47.7549354 41.665178,47.874936 C41.3851766,47.9949366 41.1426791,48.154935 40.937678,48.354936 C40.732677,48.554937 40.5726786,48.7949346 40.457678,49.074936 C40.3426775,49.3549374 40.285178,49.6499344 40.285178,49.959936 Z M52.675178,51.999936 L52.675178,30.309936 L48.625178,30.309936 L48.625178,51.999936 L52.675178,51.999936 Z M56.455178,49.959936 C56.455178,50.2799376 56.5126775,50.5774346 56.627678,50.852436 C56.7426786,51.1274373 56.902677,51.364935 57.107678,51.564936 C57.3126791,51.764937 57.5551766,51.9224354 57.835178,52.037436 C58.1151794,52.1524365 58.4151764,52.209936 58.735178,52.209936 C59.0451796,52.209936 59.3401766,52.1524365 59.620178,52.037436 C59.9001794,51.9224354 60.140177,51.764937 60.340178,51.564936 C60.540179,51.364935 60.7001774,51.1274373 60.820178,50.852436 C60.9401786,50.5774346 61.000178,50.2799376 61.000178,49.959936 C61.000178,49.6499344 60.9401786,49.3549374 60.820178,49.074936 C60.7001774,48.7949346 60.540179,48.554937 60.340178,48.354936 C60.140177,48.154935 59.9001794,47.9949366 59.620178,47.874936 C59.3401766,47.7549354 59.0451796,47.694936 58.735178,47.694936 C58.4151764,47.694936 58.1151794,47.7549354 57.835178,47.874936 C57.5551766,47.9949366 57.3126791,48.154935 57.107678,48.354936 C56.902677,48.554937 56.7426786,48.7949346 56.627678,49.074936 C56.5126775,49.3549374 56.455178,49.6499344 56.455178,49.959936 Z M39.145178,51.999936 L30.625178,30.309936 L26.500178,30.309936 L17.980178,51.999936 L21.115178,51.999936 C21.4551797,51.999936 21.7426769,51.9049369 21.977678,51.714936 C22.2126792,51.524935 22.3701776,51.3149371 22.450178,51.084936 L24.070178,46.659936 L33.055178,46.659936 L34.675178,51.084936 C34.7751785,51.3449373 34.9376769,51.5624351 35.162678,51.737436 C35.3876792,51.9124368 35.6751763,51.999936 36.025178,51.999936 L39.145178,51.999936 Z M25.105178,43.809936 L27.745178,36.624936 C27.8751787,36.2949343 28.0076774,35.9099382 28.142678,35.469936 C28.2776787,35.0299338 28.4151773,34.5549385 28.555178,34.044936 C28.6951787,34.5549385 28.8376773,35.0274338 28.982678,35.462436 C29.1276788,35.8974381 29.2601774,36.2749344 29.380178,36.594936 L32.020178,43.809936 L25.105178,43.809936 Z" id="path-6"></path>
        <filter x="-0.6%" y="-0.6%" width="101.3%" height="102.5%" filterUnits="objectBoundingBox" id="filter-7">
            <feOffset dx="0" dy="1" in="SourceAlpha" result="shadowOffsetOuter1"></feOffset>
            <feColorMatrix values="0 0 0 0 0   0 0 0 0 0   0 0 0 0 0  0 0 0 0.2 0" type="matrix" in="shadowOffsetOuter1"></feColorMatrix>
        </filter>
        <rect id="path-8" x="0" y="0" width="210" height="377" rx="30"></rect>
        <filter x="-5.2%" y="-1.9%" width="110.5%" height="105.8%" filterUnits="objectBoundingBox" id="filter-9">
            <feOffset dx="0" dy="2" in="SourceAlpha" result="shadowOffsetOuter1"></feOffset>
            <feGaussianBlur stdDeviation="2" in="shadowOffsetOuter1" result="shadowBlurOuter1"></feGaussianBlur>
            <feComposite in="shadowBlurOuter1" in2="SourceAlpha" operator="out" result="shadowBlurOuter1"></feComposite>
            <feColorMatrix values="0 0 0 0 0   0 0 0 0 0   0 0 0 0 0  0 0 0 0.23 0" type="matrix" in="shadowBlurOuter1" result="shadowMatrixOuter1"></feColorMatrix>
            <feOffset dx="0" dy="2" in="SourceAlpha" result="shadowOffsetOuter2"></feOffset>
            <feGaussianBlur stdDeviation="2" in="shadowOffsetOuter2" result="shadowBlurOuter2"></feGaussianBlur>
            <feComposite in="shadowBlurOuter2" in2="SourceAlpha" operator="out" result="shadowBlurOuter2"></feComposite>
            <feColorMatrix values="0 0 0 0 0   0 0 0 0 0   0 0 0 0 0  0 0 0 0.16 0" type="matrix" in="shadowBlurOuter2" result="shadowMatrixOuter2"></feColorMatrix>
            <feMerge>
                <feMergeNode in="shadowMatrixOuter1"></feMergeNode>
                <feMergeNode in="shadowMatrixOuter2"></feMergeNode>
            </feMerge>
        </filter>
        <rect id="path-10" x="0" y="0" width="190" height="307" rx="6"></rect>
        <rect id="path-12" x="0" y="0" width="190" height="307" rx="6"></rect>
        <rect id="path-13" x="0" y="0" width="190" height="30"></rect>
        <filter x="-3.4%" y="-25.0%" width="106.8%" height="143.3%" filterUnits="objectBoundingBox" id="filter-14">
            <feOffset dx="0" dy="-1" in="SourceAlpha" result="shadowOffsetOuter1"></feOffset>
            <feGaussianBlur stdDeviation="2" in="shadowOffsetOuter1" result="shadowBlurOuter1"></feGaussianBlur>
            <feColorMatrix values="0 0 0 0 0   0 0 0 0 0   0 0 0 0 0  0 0 0 0.2 0" type="matrix" in="shadowBlurOuter1"></feColorMatrix>
        </filter>
        <rect id="path-15" x="10" y="5" width="110" height="20" rx="10"></rect>
        <rect id="path-16" x="0" y="0" width="55" height="20" rx="10"></rect>
        <path d="M6,0 L184,0 C187.313708,-6.08718376e-16 190,2.6862915 190,6 L190,26 L0,26 L0,6 C-4.05812251e-16,2.6862915 2.6862915,6.08718376e-16 6,0 Z" id="path-17"></path>
        <filter x="-3.4%" y="-21.2%" width="106.8%" height="150.0%" filterUnits="objectBoundingBox" id="filter-18">
            <feOffset dx="0" dy="1" in="SourceAlpha" result="shadowOffsetOuter1"></feOffset>
            <feGaussianBlur stdDeviation="2" in="shadowOffsetOuter1" result="shadowBlurOuter1"></feGaussianBlur>
            <feColorMatrix values="0 0 0 0 0   0 0 0 0 0   0 0 0 0 0  0 0 0 0.2 0" type="matrix" in="shadowBlurOuter1"></feColorMatrix>
        </filter>
        <rect id="path-19" x="0" y="0" width="9" height="9" rx="4.5"></rect>
        <polygon id="path-20" points="5.57661176 9.35178947 5.57661176 0.442842105 0.0987670588 0.442842105 0.0987670588 9.35178947 5.57661176 9.35178947"></polygon>
        <rect id="path-22" x="10" y="35" width="190" height="307" rx="6"></rect>
        <rect id="path-24" x="100" y="15" width="40" height="6" rx="3"></rect>
        <path d="M0,16.1084704 L0,16.1084704 C-3.99048713e-16,12.8499903 2.64151998,10.2084704 5.9,10.2084704 L22.7719988,10.2084704 L22.7719988,2 C22.7719988,0.8954305 23.6674293,4.60298466e-13 24.7719988,4.60076421e-13 C25.215193,4.60076421e-13 25.6458341,0.147209428 25.9962881,0.418508436 L44.2210867,14.5269788 C45.0945203,15.2031351 45.2544452,16.4593261 44.5782889,17.3327597 C44.4747975,17.466446 44.3547729,17.5864706 44.2210867,17.6899619 L25.9962881,31.7984323 C25.1228545,32.4745886 23.8666636,32.3146638 23.1905072,31.4412301 C22.9192082,31.0907761 22.7719988,30.660135 22.7719988,30.2169407 L22.7719988,22.0084704 L5.9,22.0084704 C2.64151998,22.0084704 1.84610453e-15,19.3669504 0,16.1084704 Z" id="path-25"></path>
        <filter x="-24.4%" y="-21.7%" width="148.9%" height="168.3%" filterUnits="objectBoundingBox" id="filter-26">
            <feOffset dx="0" dy="2" in="SourceAlpha" result="shadowOffsetOuter1"></feOffset>
            <feGaussianBlur stdDeviation="2" in="shadowOffsetOuter1" result="shadowBlurOuter1"></feGaussianBlur>
            <feComposite in="shadowBlurOuter1" in2="SourceAlpha" operator="out" result="shadowBlurOuter1"></feComposite>
            <feColorMatrix values="0 0 0 0 0   0 0 0 0 0   0 0 0 0 0  0 0 0 0.23 0" type="matrix" in="shadowBlurOuter1" result="shadowMatrixOuter1"></feColorMatrix>
            <feOffset dx="0" dy="2" in="SourceAlpha" result="shadowOffsetOuter2"></feOffset>
            <feGaussianBlur stdDeviation="2" in="shadowOffsetOuter2" result="shadowBlurOuter2"></feGaussianBlur>
            <feComposite in="shadowBlurOuter2" in2="SourceAlpha" operator="out" result="shadowBlurOuter2"></feComposite>
            <feColorMatrix values="0 0 0 0 0   0 0 0 0 0   0 0 0 0 0  0 0 0 0.16 0" type="matrix" in="shadowBlurOuter2" result="shadowMatrixOuter2"></feColorMatrix>
            <feMerge>
                <feMergeNode in="shadowMatrixOuter1"></feMergeNode>
                <feMergeNode in="shadowMatrixOuter2"></feMergeNode>
            </feMerge>
        </filter>
    </defs>
    <g id="body---Scene-3" stroke="none" stroke-width="1" fill="none" fill-rule="evenodd" transform="translate(-155.000000, -88.000000)">
        <g id="Group" transform="translate(39.000000, 90.000000)">
            <g id="exports/source-remesh" transform="translate(120.000000, 0.000000)">
                <g id="Group-3">
                    <g id="A.I-Diagrame" transform="translate(295.000000, 114.000000)">
                        <g id="Diagram/Remesh/Arrow/Human-Powered-A.I.">
                            <g>
                                <g>
                                    <g id="Combined-Shape-Copy-3">
                                        <use fill="black" fill-opacity="1" filter="url(#filter-2)" xlink:href="#path-1"></use>
                                        <use fill="#1A1F23" fill-rule="evenodd" xlink:href="#path-1"></use>
                                        <path stroke="#FFFFFF" stroke-width="1" d="M130.490297,132.759369 L130.803967,132.526312 L176.745826,170.271838 C179.050528,172.165366 182.453837,171.832013 184.347476,169.527226 C186.240937,167.222549 185.907627,163.819288 183.603012,161.925832 L138.72369,125.053279 L139.04596,124.666487 C142.963668,119.964418 145.98416,114.576353 147.935434,108.763862 L148.096934,108.28278 L197.30303,125.617061 C200.116366,126.608141 203.200417,125.130891 204.191572,122.317437 C205.182597,119.504147 203.705404,116.420127 200.892175,115.429085 L150.288631,97.6025113 L150.321124,97.2173268 C150.438962,95.8204309 150.49822,94.4138699 150.49822,93.0000604 C150.49822,91.4856877 150.430232,89.9796583 150.295098,88.4849496 L150.260076,88.0975725 L150.626935,87.9683358 C170.661918,80.9104288 170.661918,80.9104288 200.892175,70.2609398 C203.705404,69.2698978 205.182597,66.1858771 204.191575,63.372598 C203.200417,60.5591332 200.116366,59.0818833 197.30303,60.0729632 C168.081647,70.3670328 168.081647,70.3670328 148.481658,77.2716911 L148.005837,77.4393127 L147.842468,76.9620148 C145.86028,71.1708398 142.81469,65.8079147 138.878421,61.1336193 L138.552422,60.7464986 L138.943468,60.4252186 C156.74992,45.7955558 156.74992,45.7955558 183.603015,23.7332307 C185.90763,21.8397747 186.24094,18.4365136 184.347486,16.1318454 C182.453839,13.8270495 179.050531,13.493696 176.745829,15.3872242 C149.039768,38.1503394 149.039768,38.1503394 130.887335,53.0642584 L130.587079,53.3109465 L130.273905,53.0808797 C121.847984,46.8909438 111.680192,43.5 100.99911,43.5 C73.6615084,43.5 51.5,65.6619298 51.5,93.0000604 C51.5,120.338191 73.6615084,142.500121 100.99911,142.500121 C111.773352,142.500121 122.024419,139.049535 130.490297,132.759369 Z M76.3780799,42.3014534 C84.0340931,38.4012961 92.5221595,36.3388296 101.304854,36.3388296 C109.89164,36.3388296 118.197837,38.3101655 125.722412,42.0453827 L137.984477,10.691021 C138.324103,9.82259084 138.498433,8.89800659 138.498433,7.96515234 C138.498433,3.84195525 135.165655,0.5 131.055152,0.5 L70.9451955,0.5 C70.0153999,0.5 69.0938291,0.6747204 68.2281819,1.01512461 C64.4009033,2.52015085 62.5146103,6.85226586 64.0158708,10.691021 L76.3780799,42.3014534 Z"></path>
                                    </g>
                                    <g id="Diagram/Remesh/Arrow/Participants" transform="translate(0.000000, 77.000000)">
                                        <g id="Fill-2-Copy">
                                            <g>
                                                <use fill="black" fill-opacity="1" filter="url(#filter-4)" xlink:href="#path-3"></use>
                                                <use fill="#1A1F23" fill-rule="evenodd" xlink:href="#path-3"></use>
                                                <path stroke="#FFFFFF" stroke-width="1" d="M44.4968924,16.1084704 C44.4968924,13.1261327 42.0792301,10.7084704 39.0968924,10.7084704 L21.7248937,10.7084704 L21.7248937,2 C21.7248937,1.17157288 21.0533208,0.5 20.2248937,0.5 C19.892498,0.5 19.5695171,0.610407071 19.3066766,0.813881327 L1.08187812,14.9223517 C0.426802861,15.429469 0.306859205,16.3716121 0.813976461,17.0266874 C0.891594976,17.1269521 0.981613399,17.2169705 1.08187812,17.294589 L19.3066766,31.4030594 C19.9617519,31.9101767 20.9038951,31.790233 21.4110123,31.1351578 C21.6144866,30.8723173 21.7248937,30.5493364 21.7248937,30.2169407 L21.7248937,21.5084704 L39.0968924,21.5084704 C42.0792301,21.5084704 44.4968924,19.090808 44.4968924,16.1084704 Z"></path>
                                            </g>
                                        </g>
                                    </g>
                                    <g id="1" transform="translate(61.000000, 53.000000)">
                                        <ellipse id="Oval" fill="url(#linearGradient-5)" fill-rule="nonzero" cx="39.5" cy="45.5" rx="25.5" ry="18.5"></ellipse>
                                        <g id="Combined-Shape">
                                            <use fill="black" fill-opacity="1" filter="url(#filter-7)" xlink:href="#path-6"></use>
                                            <use fill="#FFFFFF" fill-rule="evenodd" xlink:href="#path-6"></use>
                                        </g>
                                    </g>
                                </g>
                            </g>
                        </g>
                    </g>
                    <g id="Diagram/Remesh/Phone" transform="translate(65.000000, 0.000000)">
                        <g>
                            <g id="Combined-Shape-Copy-5">
                                <use fill="black" fill-opacity="1" filter="url(#filter-9)" xlink:href="#path-8"></use>
                                <use fill="#1A1F23" fill-rule="evenodd" xlink:href="#path-8"></use>
                                <use fill="#FFFFFF" fill-rule="evenodd" xlink:href="#path-8"></use>
                                <rect stroke-opacity="0.2" stroke="#ABABAB" stroke-width="1" x="0.5" y="0.5" width="209" height="376" rx="30"></rect>
                            </g>
                            <g id="Group-7" transform="translate(10.000000, 35.000000)">
                                <mask id="mask-11" fill="white">
                                    <use xlink:href="#path-10"></use>
                                </mask>
                                <g id="Mask">
                                    <use fill="#F7F8FA" fill-rule="evenodd" xlink:href="#path-10"></use>
                                    <rect stroke-opacity="0.2" stroke="#ABABAB" stroke-width="1" x="0.5" y="0.5" width="189" height="306" rx="6"></rect>
                                </g>
                                <g mask="url(#mask-11)">
                                    <g id="Combined-Shape-Copy-5">
                                        <use fill="#F7F8FA" fill-rule="evenodd" xlink:href="#path-12"></use>
                                        <rect stroke-opacity="0.2" stroke="#ABABAB" stroke-width="1" x="0.5" y="0.5" width="189" height="306" rx="6"></rect>
                                    </g>
                                    <g id="Group-2" transform="translate(0.000000, 277.000000)">
                                        <g id="Rectangle">
                                            <use fill="black" fill-opacity="1" filter="url(#filter-14)" xlink:href="#path-13"></use>
                                            <use fill="#959495" fill-rule="evenodd" xlink:href="#path-13"></use>
                                            <use fill="#E8E8E8" fill-rule="evenodd" xlink:href="#path-13"></use>
                                            <use fill="#F7F8FA" fill-rule="evenodd" xlink:href="#path-13"></use>
                                        </g>
                                        <g id="Universal/Shadow-Stack/Rounded-Corners/Light/9">
                                            <use fill="#FFFFFF" fill-rule="evenodd" xlink:href="#path-15"></use>
                                            <rect stroke="#DDDDDD" stroke-width="1" x="10.5" y="5.5" width="109" height="19" rx="9.5"></rect>
                                        </g>
                                        <g id="Group-4" transform="translate(125.000000, 5.000000)">
                                            <g id="Universal/Shadow-Stack/Rounded-Corners/Light/9-Copy">
                                                <use fill="#FFFFFF" fill-rule="evenodd" xlink:href="#path-16"></use>
                                                <rect stroke="#DDDDDD" stroke-width="1" x="0.5" y="0.5" width="54" height="19" rx="9.5"></rect>
                                            </g>
                                            <text id="Send" font-family="Lato-Bold, Lato" font-size="10" font-weight="bold" fill="#1A1F23">
                                                <tspan x="16.4525" y="13">Send</tspan>
                                            </text>
                                        </g>
                                    </g>
                                    <g id="Group-2-Copy-2">
                                        <g id="Header/Conversation-(scrolled)">
                                            <g id="Rectangle">
                                                <use fill="black" fill-opacity="1" filter="url(#filter-18)" xlink:href="#path-17"></use>
                                                <use fill="#F7F8FA" fill-rule="evenodd" xlink:href="#path-17"></use>
                                            </g>
                                            <g id="Count" transform="translate(97.000000, 9.000000)">
                                                <text id="138-Users-Online" font-family="Lato-Bold, Lato" font-size="8" font-weight="bold" fill="#404040">
                                                    <tspan x="16" y="8">138 Users Online</tspan>
                                                </text>
                                                <g id="Green-Dot" transform="translate(0.000000, 1.000000)">
                                                    <circle id="Oval" fill="#53BF60" cx="4.5" cy="4.5" r="2.5"></circle>
                                                    <g id="Field">
                                                        <rect stroke="#FFFFFF" stroke-width="0.5" x="0.25" y="0.25" width="8.5" height="8.5" rx="4.25"></rect>
                                                        <rect stroke-opacity="0.75" stroke="#5BD013" stroke-width="2" x="-1" y="-1" width="11" height="11" rx="5.5"></rect>
                                                    </g>
                                                </g>
                                            </g>
                                            <g id="Logo/dark" transform="translate(10.000000, 8.000000)">
                                                <g id="Page-1">
                                                    <path d="M6.52069647,9.43552632 L6.52069647,3.01236842 L6.93999059,3.01236842 L7.02436706,4.01184211 C7.49180235,3.45131579 8.21081412,2.915 9.36154353,2.915 L9.32582588,3.415 C8.33090824,3.415 7.57566118,3.93868421 7.04817882,4.67026316 L7.04817882,9.43552632 L6.52069647,9.43552632 Z" id="Fill-1" fill="#1A1F23"></path>
                                                    <path d="M14.1683106,5.52326316 C14.1683106,4.17063158 13.5331576,3.40273684 12.2861459,3.40273684 C11.0515576,3.40273684 10.1767341,4.06063158 10.0447341,5.74273684 L14.1683106,5.74273684 L14.1683106,5.52326316 Z M14.6357459,9.08221053 C14.3360282,9.22852632 13.5207341,9.54536842 12.4181459,9.54536842 C10.4283106,9.54536842 9.49344,8.30221053 9.49344,6.27905263 C9.49344,4.17063158 10.4283106,2.90273684 12.27424,2.90273684 C13.92864,2.90273684 14.7076988,3.97536842 14.7076988,5.49905263 C14.7076988,5.74273684 14.6838871,5.98642105 14.6476518,6.24221053 L10.0209224,6.24221053 C10.0209224,8.25326316 10.9438871,9.04536842 12.3824282,9.04536842 C13.7246871,9.04536842 14.6119341,8.558 14.6119341,8.558 L14.6357459,9.08221053 Z" id="Fill-3" fill="#1A1F23"></path>
                                                    <path d="M24.0812518,9.43552632 L24.0812518,5.21868421 C24.0812518,4.26815789 23.5180518,3.85342105 22.8585694,3.85342105 C22.0437929,3.85342105 21.3962165,4.45078947 21.1208282,4.90184211 L21.1208282,9.43552632 L19.9814871,9.43552632 L19.9814871,5.21868421 C19.9814871,4.25552632 19.4301929,3.84131579 18.7712282,3.84131579 C17.9559341,3.84131579 17.2969694,4.45078947 17.0210635,4.87710526 L17.0210635,9.43552632 L15.8941459,9.43552632 L15.8941459,3.01236842 L16.7694871,3.01236842 L16.9009694,3.90236842 C17.3326871,3.36605263 18.0760282,2.89078947 19.0828518,2.89078947 C19.8857224,2.89078947 20.5928282,3.20763158 20.9049694,3.96342105 C21.3480753,3.43921053 22.0914165,2.90289474 23.1820988,2.90289474 C24.2971106,2.90289474 25.2081694,3.53657895 25.2081694,5.03605263 L25.2081694,9.43552632 L24.0812518,9.43552632 Z" id="Fill-5" fill="#1A1F23"></path>
                                                    <path d="M30.5299435,5.49894737 C30.5299435,4.43842105 30.0381788,3.80473684 29.0313553,3.80473684 C28.0726729,3.80473684 27.3774729,4.36526316 27.2573788,5.63315789 L30.5299435,5.63315789 L30.5299435,5.49894737 Z M31.5367671,9.13105263 C31.0693318,9.32578947 30.1701788,9.55736842 29.2114965,9.55736842 C27.1253788,9.55736842 26.1066494,8.33842105 26.1066494,6.29105263 C26.1066494,4.15842105 27.1497082,2.89105263 29.0194494,2.89105263 C30.9016141,2.89105263 31.6568612,4.06052632 31.6568612,5.56 C31.6568612,5.85210526 31.6206259,6.20578947 31.5730024,6.49842105 L27.2454729,6.49842105 C27.30552,8.00947368 28.0245318,8.59473684 29.3310729,8.59473684 C30.4098494,8.59473684 31.3328141,8.24105263 31.5367671,8.18 L31.5367671,9.13105263 Z" id="Fill-7" fill="#1A1F23"></path>
                                                    <path d="M32.7472329,8.22889474 C32.7953741,8.27784211 33.8860565,8.59468421 34.8209271,8.59468421 C35.8758918,8.59468421 36.3552329,8.30205263 36.3552329,7.66836842 C36.3552329,6.20573684 32.6633741,7.10784211 32.6633741,4.71889474 C32.6633741,3.52468421 33.63448,2.891 35.2402212,2.891 C36.28328,2.891 37.0623388,3.13468421 37.2062447,3.21994737 L37.1586212,4.19468421 C36.7507153,3.99994737 35.9835624,3.85363158 35.3365035,3.85363158 C34.2458212,3.85363158 33.7421506,4.14626316 33.7421506,4.71889474 C33.7421506,6.04731579 37.4583388,5.18205263 37.4583388,7.66836842 C37.4583388,8.98468421 36.4390918,9.54521053 34.9166918,9.54521053 C33.7902918,9.54521053 32.7234212,9.24047368 32.6990918,9.22836842 L32.7472329,8.22889474 Z" id="Fill-9" fill="#1A1F23"></path>
                                                    <g id="Group-13" transform="translate(38.305882, 0.083737)">
                                                        <mask id="mask-21" fill="white">
                                                            <use xlink:href="#path-20"></use>
                                                        </mask>
                                                        <g id="Clip-12"></g>
                                                        <path d="M4.45010824,9.35178947 L4.45010824,5.34231579 C4.45010824,4.22073684 3.95834353,3.75757895 3.16737882,3.75757895 C2.25632,3.75757895 1.57302588,4.35494737 1.22568471,4.81810526 L1.22568471,9.35178947 L0.0987670588,9.35178947 L0.0987670588,0.442842105 L1.22568471,0.442842105 L1.22568471,3.03863158 L1.21377882,3.69652632 C1.69312,3.22126316 2.44836706,2.80705263 3.37133176,2.80705263 C4.66596706,2.80705263 5.57702588,3.61126316 5.57702588,5.20810526 L5.57702588,9.35178947 L4.45010824,9.35178947 Z" id="Fill-11" fill="#1A1F23" mask="url(#mask-21)"></path>
                                                    </g>
                                                    <polygon id="Fill-14" fill="#37B062" points="0 6.48615789 0 5.98615789 5.20235294 3.37826316 5.20235294 3.87773684 0.503670588 6.23036842 5.20235294 8.57036842 5.20235294 9.06984211"></polygon>
                                                </g>
                                            </g>
                                        </g>
                                    </g>
                                </g>
                            </g>
                            <mask id="mask-23" fill="white">
                                <use xlink:href="#path-22"></use>
                            </mask>
                            <rect stroke="#DDDDDD" x="10.5" y="35.5" width="189" height="306" rx="6"></rect>
                        </g>
                        <g id="Rectangle-9-Copy-10">
                            <use fill-opacity="0.5" fill="#ABABAB" fill-rule="evenodd" xlink:href="#path-24"></use>
                            <use fill="#F7F8FA" fill-rule="evenodd" xlink:href="#path-24"></use>
                            <rect stroke-opacity="0.2" stroke="#ABABAB" stroke-width="1" x="100.5" y="15.5" width="39" height="5" rx="2.5"></rect>
                        </g>
                    </g>
                    <g id="Diagram/Remesh/Arrow/Moderator" transform="translate(0.000000, 191.000000)">
                        <g id="Fill-2">
                            <g>
                                <use fill="black" fill-opacity="1" filter="url(#filter-26)" xlink:href="#path-25"></use>
                                <use fill="#1A1F23" fill-rule="evenodd" xlink:href="#path-25"></use>
                                <path stroke="#FFFFFF" stroke-width="1" d="M0.5,16.1084704 C0.5,19.090808 2.91766235,21.5084704 5.9,21.5084704 L23.2719988,21.5084704 L23.2719988,30.2169407 C23.2719988,30.5493364 23.3824059,30.8723173 23.5858801,31.1351578 C24.0929974,31.790233 25.0351405,31.9101767 25.6902158,31.4030594 L43.9150143,17.294589 C44.015279,17.2169705 44.1052975,17.1269521 44.182916,17.0266874 C44.6900332,16.3716121 44.5700896,15.429469 43.9150143,14.9223517 L25.6902158,0.813881327 C25.4273753,0.610407071 25.1043945,0.5 24.7719988,0.5 C23.9435717,0.5 23.2719988,1.17157288 23.2719988,2 L23.2719988,10.7084704 L5.9,10.7084704 C2.91766235,10.7084704 0.5,13.1261327 0.5,16.1084704 Z"></path>
                            </g>
                        </g>
                    </g>
                </g>
            </g>
        </g>
    </g>
</svg>