<svg width="16" height="16" viewBox="0 0 16 16" fill="none" xmlns="http://www.w3.org/2000/svg">
<path d="M12.1295 7.74107L8.28571 8.95312C8.17857 8.98661 8.07143 9 7.96429 9C7.85714 9 7.75 8.98661 7.64286 8.95312L3.79911 7.74107L3.67857 9.85714C3.625 10.8013 5.60045 11.5714 7.96429 11.5714C10.3281 11.5714 12.3036 10.8013 12.25 9.85714L12.1295 7.74107ZM15.6786 5.57143C15.6786 5.47768 15.6183 5.39732 15.5312 5.36384L8.03125 3.0067C8.00446 3 7.98438 3 7.96429 3C7.9442 3 7.92411 3 7.89732 3.0067L0.397321 5.36384C0.310268 5.39732 0.25 5.47768 0.25 5.57143C0.25 5.66518 0.310268 5.74554 0.397321 5.77902L2.62723 6.47545C2.21205 7.05804 2.01116 7.90179 1.97098 8.68527C1.71652 8.83259 1.53571 9.10714 1.53571 9.42857C1.53571 9.72991 1.68973 9.99107 1.92411 10.1451L1.53571 13.0446C1.52902 13.1049 1.54911 13.1652 1.58929 13.2121C1.62946 13.2589 1.68973 13.2857 1.75 13.2857H3.03571C3.09598 13.2857 3.15625 13.2589 3.19643 13.2121C3.23661 13.1652 3.2567 13.1049 3.25 13.0446L2.86161 10.1451C3.09598 9.99107 3.25 9.72991 3.25 9.42857C3.25 9.11384 3.08259 8.84598 2.82813 8.69866C2.8817 7.79464 3.14955 7.05804 3.53125 6.7567L7.89732 8.13616C7.92411 8.14286 7.9442 8.14286 7.96429 8.14286C7.98438 8.14286 8.00446 8.14286 8.03125 8.13616L15.5312 5.77902C15.6183 5.74554 15.6786 5.66518 15.6786 5.57143Z" fill="black"/>
</svg>
