<svg width="16" height="16" viewBox="0 0 16 16" fill="none" xmlns="http://www.w3.org/2000/svg">
<path d="M5.03168 14.0008C11.0694 14.0008 14.3718 8.99859 14.3718 4.66067C14.3718 4.51859 14.3718 4.37715 14.3622 4.23635C15.0047 3.77166 15.5593 3.19627 16 2.53715C15.4009 2.80263 14.7653 2.97672 14.1146 3.05363C14.7998 2.64338 15.3127 1.99813 15.5578 1.23795C14.9134 1.62032 14.2084 1.8898 13.4733 2.03475C12.9783 1.50847 12.3237 1.15998 11.6108 1.04321C10.8978 0.926437 10.1663 1.0479 9.52931 1.38879C8.89234 1.72968 8.38548 2.271 8.08716 2.92898C7.78884 3.58697 7.71569 4.32493 7.87904 5.02867C6.57392 4.96324 5.29715 4.62408 4.13161 4.03321C2.96607 3.44234 1.93782 2.61296 1.1136 1.59891C0.693819 2.32158 0.565248 3.17706 0.754066 3.99119C0.942885 4.80532 1.43489 5.51688 2.12992 5.98099C1.60751 5.96551 1.0965 5.82458 0.64 5.57011C0.64 5.58355 0.64 5.59763 0.64 5.61171C0.640207 6.36961 0.902567 7.10411 1.38258 7.69062C1.86259 8.27714 2.53071 8.67956 3.2736 8.82963C2.79032 8.96143 2.28325 8.9807 1.79136 8.88595C2.00113 9.53822 2.40951 10.1086 2.95941 10.5174C3.5093 10.9261 4.17319 11.1528 4.85824 11.1656C3.69583 12.0792 2.25988 12.5751 0.78144 12.5736C0.520258 12.5731 0.259331 12.5573 0 12.5263C1.50121 13.4896 3.24794 14.0006 5.03168 13.9983" fill="black"/>
</svg>
