<svg width="16" height="16" viewBox="0 0 16 16" fill="none" xmlns="http://www.w3.org/2000/svg">
<path d="M6.28571 4.71429V3.85714H9.71429V4.71429H6.28571ZM14 9H9.5V10.0714C9.5 10.3058 9.3058 10.5 9.07143 10.5H6.92857C6.6942 10.5 6.5 10.3058 6.5 10.0714V9H2V12.2143C2 12.8036 2.48214 13.2857 3.07143 13.2857H12.9286C13.5179 13.2857 14 12.8036 14 12.2143V9ZM8.85714 9H7.14286V9.85714H8.85714V9ZM14 5.78572C14 5.19643 13.5179 4.71429 12.9286 4.71429H10.5714V3.64286C10.5714 3.28795 10.2835 3 9.92857 3H6.07143C5.71652 3 5.42857 3.28795 5.42857 3.64286V4.71429H3.07143C2.48214 4.71429 2 5.19643 2 5.78572V8.35714H14V5.78572Z" fill="black"/>
</svg>
