<svg width="16" height="16" viewBox="0 0 16 16" fill="none" xmlns="http://www.w3.org/2000/svg">
<path d="M10.5 7C10.5 8.92969 8.92969 10.5 7 10.5C5.07031 10.5 3.5 8.92969 3.5 7C3.5 5.07031 5.07031 3.5 7 3.5C8.92969 3.5 10.5 5.07031 10.5 7ZM14.5 13.5C14.5 13.2344 14.3906 12.9766 14.2109 12.7969L11.5312 10.1172C12.1641 9.20312 12.5 8.10938 12.5 7C12.5 3.96094 10.0391 1.5 7 1.5C3.96094 1.5 1.5 3.96094 1.5 7C1.5 10.0391 3.96094 12.5 7 12.5C8.10938 12.5 9.20313 12.1641 10.1172 11.5312L12.7969 14.2031C12.9766 14.3906 13.2344 14.5 13.5 14.5C14.0469 14.5 14.5 14.0469 14.5 13.5Z" fill="black"/>
</svg>
