<svg width="16" height="16" viewBox="0 0 16 16" fill="none" xmlns="http://www.w3.org/2000/svg">
<path d="M15 6.04688C14.7656 6.30469 14.5 6.53125 14.2188 6.72657C13.349 7.31511 12.4757 7.90712 11.6129 8.50956L9.80848 9.79469C9.35407 10.1041 8.85007 10.3876 8.32509 10.4736L7.99219 10.5C7.35352 10.5 6.73682 10.166 6.19153 9.79469L5.67188 9.42188C4.39844 8.49219 3.08594 7.60938 1.78906 6.72657C1.5 6.53125 1.23438 6.30469 1 6.04688V12.25C1 12.9375 1.5625 13.5 2.25 13.5H13.75C14.4375 13.5 15 12.9375 15 12.25V6.04688ZM15 3.75C15 4.625 14.3516 5.41407 13.6641 5.89063C12.4453 6.73438 11.2188 7.57813 10.0078 8.42969L9.3187 8.92284C8.97361 9.15996 8.59482 9.38707 8.25461 9.46843L7.99219 9.5C7.35938 9.5 6.5 8.78126 5.99219 8.42969L2.34375 5.89063C1.78906 5.51563 1 4.63281 1 3.92188C1 3.15625 1.41406 2.5 2.25 2.5H13.75C14.4297 2.5 15 3.0625 15 3.75Z" fill="black"/>
</svg>
