<svg width="16" height="16" viewBox="0 0 16 16" fill="none" xmlns="http://www.w3.org/2000/svg">
<path d="M8 14C11.3125 14 14 11.3125 14 8C14 4.6875 11.3125 2 8 2C4.6875 2 2 4.6875 2 8C2 11.3125 4.6875 14 8 14ZM8.75 5H7.25C7.10938 5 7 4.89063 7 4.75V3.5C7 3.35938 7.10938 3.25 7.25 3.25H8.75C8.89063 3.25 9 3.35938 9 3.5V4.75C9 4.89063 8.89063 5 8.75 5ZM9.75 12H6.25C6.10938 12 6 11.8906 6 11.75V10.5C6 10.3594 6.10938 10.25 6.25 10.25H7V7.75H6.25C6.10938 7.75 6 7.64063 6 7.5V6.25C6 6.10938 6.10938 6 6.25 6H8.75C8.89063 6 9 6.10938 9 6.25V10.25H9.75C9.89063 10.25 10 10.3594 10 10.5V11.75C10 11.8906 9.89063 12 9.75 12Z" fill="black"/>
</svg>
