<svg width="16" height="16" viewBox="0 0 16 16" fill="none" xmlns="http://www.w3.org/2000/svg">
<path d="M12.0391 8C12.0391 8.13281 11.9922 8.25781 11.8984 8.35156L11.1875 9.0625L8.35938 11.8906C8.26563 11.9844 8.14063 12.0312 8.00781 12.0312C7.875 12.0312 7.75 11.9844 7.65625 11.8906L6.94531 11.1797C6.85156 11.0859 6.79688 10.9609 6.79688 10.8281C6.79688 10.6953 6.85156 10.5703 6.94531 10.4766L8.42188 9H4.5C4.22656 9 4 8.77344 4 8.5V7.5C4 7.22656 4.22656 7 4.5 7H8.42188L6.94531 5.52344C6.85156 5.42969 6.80469 5.30469 6.80469 5.17187C6.80469 5.03906 6.85156 4.91406 6.94531 4.82031L7.65625 4.10937C7.75 4.01562 7.875 3.96875 8.00781 3.96875C8.14063 3.96875 8.26563 4.01562 8.35938 4.10937L11.1875 6.9375L11.8984 7.64844C11.9922 7.74219 12.0391 7.86719 12.0391 8ZM14 8C14 4.6875 11.3125 2 8 2C4.6875 2 2 4.6875 2 8C2 11.3125 4.6875 14 8 14C11.3125 14 14 11.3125 14 8Z" fill="black"/>
</svg>
