<svg width="16" height="16" viewBox="0 0 16 16" fill="none" xmlns="http://www.w3.org/2000/svg">
<path d="M15 6.54688C14.7656 6.80469 14.5 7.03126 14.2188 7.22657C13.349 7.81511 12.4757 8.40712 11.6129 9.00956L9.80848 10.2947C9.35407 10.6041 8.85007 10.8876 8.32509 10.9736L7.99219 11C7.35352 11 6.73682 10.666 6.19153 10.2947L5.67188 9.92188C4.39844 8.99219 3.08594 8.10938 1.78906 7.22657C1.5 7.03126 1.23438 6.80469 1 6.54688V12.75C1 13.4375 1.5625 14 2.25 14H13.75C14.4375 14 15 13.4375 15 12.75V6.54688ZM15 4.25C15 5.125 14.3516 5.91407 13.6641 6.39063C12.4453 7.23438 11.2188 8.07813 10.0078 8.92969L9.3187 9.42284C8.97361 9.65996 8.59482 9.88707 8.25461 9.96843L7.99219 10C7.35938 10 6.5 9.28126 5.99219 8.92969L2.34375 6.39063C1.78906 6.01563 1 5.13281 1 4.42188C1 3.65625 1.41406 3 2.25 3H13.75C14.4297 3 15 3.5625 15 4.25Z" fill="black"/>
</svg>
