<?xml version="1.0" encoding="UTF-8"?>
<svg width="911px" height="1258px" viewBox="0 0 911 1258" version="1.1" xmlns="http://www.w3.org/2000/svg" xmlns:xlink="http://www.w3.org/1999/xlink">
    <!-- Generator: Sketch 48.2 (47327) - http://www.bohemiancoding.com/sketch -->
    <title>Toggle__Respond_</title>
    <desc>Created with Sketch.</desc>
    <defs>
        <rect id="path-1" x="0" y="0" width="252" height="37.5" rx="18.75"></rect>
        <filter x="-2.4%" y="-13.3%" width="104.8%" height="132.0%" filterUnits="objectBoundingBox" id="filter-2">
            <feMorphology radius="1" operator="dilate" in="SourceAlpha" result="shadowSpreadOuter1"></feMorphology>
            <feOffset dx="0" dy="1" in="shadowSpreadOuter1" result="shadowOffsetOuter1"></feOffset>
            <feGaussianBlur stdDeviation="1.5" in="shadowOffsetOuter1" result="shadowBlurOuter1"></feGaussianBlur>
            <feComposite in="shadowBlurOuter1" in2="SourceAlpha" operator="out" result="shadowBlurOuter1"></feComposite>
            <feColorMatrix values="0 0 0 0 0   0 0 0 0 0   0 0 0 0 0  0 0 0 0.1 0" type="matrix" in="shadowBlurOuter1"></feColorMatrix>
        </filter>
        <rect id="path-3" x="0" y="0.166666667" width="124.771046" height="35" rx="17.5"></rect>
        <filter x="-0.4%" y="-1.4%" width="100.8%" height="102.9%" filterUnits="objectBoundingBox" id="filter-4">
            <feOffset dx="0" dy="1" in="SourceAlpha" result="shadowOffsetOuter1"></feOffset>
            <feColorMatrix values="0 0 0 0 0   0 0 0 0 0   0 0 0 0 0  0 0 0 0.15 0" type="matrix" in="shadowOffsetOuter1"></feColorMatrix>
        </filter>
        <rect id="path-5" x="0" y="5.009e-13" width="124.771046" height="35" rx="17.5"></rect>
        <filter x="-0.4%" y="-1.4%" width="100.8%" height="105.7%" filterUnits="objectBoundingBox" id="filter-6">
            <feOffset dx="0" dy="1" in="SourceAlpha" result="shadowOffsetOuter1"></feOffset>
            <feColorMatrix values="0 0 0 0 0   0 0 0 0 0   0 0 0 0 0  0 0 0 0.15 0" type="matrix" in="shadowOffsetOuter1"></feColorMatrix>
        </filter>
    </defs>
    <g id="Page-4" stroke="none" stroke-width="1" fill="none" fill-rule="evenodd">
        <g id="Toggle__Respond_">
            <g id="U.I.-Imagery/Live-Conversation-Illustration-(Using-Remesh)" transform="translate(46.000000, -15.000000)">
                <g>
                    <g id="Chat-Box" transform="translate(181.000000, 800.000000)">
                        <g>
                            <g id="Universal/Pop-up-Module-Background/Dark" transform="translate(10.000000, 5.000100)">
                                <g id="Page-1"></g>
                            </g>
                            <g id="Thought-Options" transform="translate(100.000000, 122.000000)">
                                <g id="A">
                                    <g id="Conversation/Chat-Box/Response-Voting-Boxes/Default">
                                        <g id="Vote"></g>
                                    </g>
                                </g>
                            </g>
                            <g id="Toggle" transform="translate(30.000000, 46.000000)">
                                <g id="Toggles/Light/Small/Left/Active" transform="translate(0.000000, 0.500000)">
                                    <g id="5-20-5-20">
                                        <use fill="black" fill-opacity="1" filter="url(#filter-2)" xlink:href="#path-1"></use>
                                        <use fill="#F6F6F6" fill-rule="evenodd" xlink:href="#path-1"></use>
                                        <rect stroke="#F1F1F1" stroke-width="1" x="-0.5" y="-0.5" width="253" height="38.5" rx="19.25"></rect>
                                    </g>
                                    <g id="Right" transform="translate(1.000000, 1.000000)" opacity="0">
                                        <g id="5-20-5-20">
                                            <use fill="black" fill-opacity="1" filter="url(#filter-4)" xlink:href="#path-3"></use>
                                            <use fill="#F6F6F6" fill-rule="evenodd" xlink:href="#path-3"></use>
                                        </g>
                                    </g>
                                    <g id="Left" transform="translate(1.000000, 1.000000)">
                                        <g id="5-20-5-20-copy">
                                            <use fill="black" fill-opacity="1" filter="url(#filter-6)" xlink:href="#path-5"></use>
                                            <use fill="#FFFFFF" fill-rule="evenodd" xlink:href="#path-5"></use>
                                        </g>
                                        <path d="M31.9205229,14.9 C31.9205229,15.7280041 31.6865253,16.4359971 31.2185229,17.024 C30.7505206,17.6120029 30.0785273,18.0199989 29.2025229,18.248 L32.3345229,23 L29.5625229,23 L26.9885229,18.446 L25.3685229,18.446 L25.3685229,23 L23.2445229,23 L23.2445229,11.318 L27.5645229,11.318 C28.9445298,11.318 30.0185191,11.6479967 30.7865229,12.308 C31.5425267,12.9440032 31.9205229,13.8079945 31.9205229,14.9 Z M27.3665229,17.024 C28.1465268,17.024 28.734521,16.8470018 29.1305229,16.493 C29.5265249,16.1389982 29.7245229,15.6710029 29.7245229,15.089 C29.7245229,14.5069971 29.5445247,14.0390018 29.1845229,13.685 C28.8245211,13.3309982 28.2845265,13.154 27.5645229,13.154 L25.3685229,13.154 L25.3685229,17.024 L27.3665229,17.024 Z M34.8185229,11.318 L42.3425229,11.318 L42.3425229,13.154 L36.9425229,13.154 L36.9425229,16.232 L42.0005229,16.232 L42.0005229,18.068 L36.9425229,18.068 L36.9425229,21.146 L42.3425229,21.146 L42.3425229,23 L34.8185229,23 L34.8185229,11.318 Z M51.5225229,14.54 C51.330522,13.5199949 50.6105292,13.01 49.3625229,13.01 C48.7505199,13.01 48.2735246,13.1329988 47.9315229,13.379 C47.5895212,13.6250012 47.4185229,13.9219983 47.4185229,14.27 C47.4185229,14.6180017 47.5295218,14.890999 47.7515229,15.089 C47.973524,15.287001 48.3185206,15.4699992 48.7865229,15.638 L51.3245229,16.628 C52.1885273,16.9640017 52.8545206,17.3869975 53.3225229,17.897 C53.7905253,18.4070026 54.0245229,19.0459962 54.0245229,19.814 C54.0245229,20.8700053 53.6285269,21.7069969 52.8365229,22.325 C52.044519,22.9430031 50.9165303,23.252 49.4525229,23.252 C48.1565165,23.252 47.106527,22.9340032 46.3025229,22.298 C45.4025184,21.6019965 44.9285232,20.6180064 44.8805229,19.346 L46.9865229,19.346 C46.9865229,20.3060048 47.484518,20.9119987 48.4805229,21.164 C48.7805244,21.2480004 49.1765205,21.29 49.6685229,21.29 C50.1605254,21.29 50.6165208,21.1670012 51.0365229,20.921 C51.456525,20.6749988 51.6665229,20.3450021 51.6665229,19.931 C51.6665229,19.5169979 51.5525241,19.1990011 51.3245229,18.977 C51.0965218,18.7549989 50.7245255,18.548001 50.2085229,18.356 L47.8865229,17.438 C46.9865184,17.0899983 46.2965253,16.6820023 45.8165229,16.214 C45.3365205,15.7459977 45.0965229,15.0980041 45.0965229,14.27 C45.0965229,13.2979951 45.4745192,12.5300028 46.2305229,11.966 C46.9985268,11.3779971 48.0395164,11.084 49.3535229,11.084 C50.6675295,11.084 51.6815194,11.386997 52.3955229,11.993 C53.1095265,12.599003 53.5205224,13.4479945 53.6285229,14.54 L51.5225229,14.54 Z M60.9365229,11.318 C62.2565295,11.318 63.2855192,11.6389968 64.0235229,12.281 C64.7615266,12.9230032 65.1305229,13.840994 65.1305229,15.035 C65.1305229,16.229006 64.7615266,17.1469968 64.0235229,17.789 C63.2855192,18.4310032 62.2565295,18.752 60.9365229,18.752 L58.9565229,18.752 L58.9565229,23 L56.8145229,23 L56.8145229,11.318 L60.9365229,11.318 Z M60.9365229,16.898 C61.5965262,16.898 62.0945213,16.7240017 62.4305229,16.376 C62.7665246,16.0279983 62.9345229,15.5810027 62.9345229,15.035 C62.9345229,14.4889973 62.7665246,14.0390018 62.4305229,13.685 C62.0945213,13.3309982 61.5965262,13.154 60.9365229,13.154 L58.9565229,13.154 L58.9565229,16.898 L60.9365229,16.898 Z M71.8085229,11.084 C72.5885268,11.084 73.3025197,11.2129987 73.9505229,11.471 C74.5985262,11.7290013 75.1565206,12.1099975 75.6245229,12.614 C76.6085279,13.6700053 77.1005229,15.1819902 77.1005229,17.15 C77.1005229,19.1300099 76.6085279,20.6599946 75.6245229,21.74 C74.6885183,22.748005 73.410531,23.252 71.7905229,23.252 C70.1825149,23.252 68.9105276,22.7360052 67.9745229,21.704 C66.990518,20.6359947 66.4985229,19.1180098 66.4985229,17.15 C66.4985229,15.15799 66.990518,13.6340053 67.9745229,12.578 C68.8985276,11.581995 70.1765148,11.084 71.8085229,11.084 Z M74.9045229,17.186 C74.9045229,15.8419933 74.6255257,14.8070036 74.0675229,14.081 C73.5095201,13.3549964 72.7565277,12.992 71.8085229,12.992 C70.8605182,12.992 70.1045258,13.3549964 69.5405229,14.081 C68.9765201,14.8070036 68.6945229,15.8389933 68.6945229,17.177 C68.6945229,18.5150067 68.9765201,19.5409964 69.5405229,20.255 C70.1045258,20.9690036 70.8605182,21.326 71.8085229,21.326 C72.7565277,21.326 73.5095201,20.9690036 74.0675229,20.255 C74.6255257,19.5409964 74.9045229,18.5180067 74.9045229,17.186 Z M81.9065229,11.318 L87.0545229,19.598 L87.0545229,11.318 L89.1785229,11.318 L89.1785229,23 L87.0185229,23 L81.7085229,14.432 L81.7085229,23 L79.5845229,23 L79.5845229,11.318 L81.9065229,11.318 Z M96.3065229,11.318 C98.0825318,11.318 99.5165175,11.8459947 100.608523,12.902 C101.712528,13.9580053 102.264523,15.3799911 102.264523,17.168 C102.264523,18.9440089 101.712528,20.3599947 100.608523,21.416 C99.5165175,22.4720053 98.0825318,23 96.3065229,23 L92.5085229,23 L92.5085229,11.318 L96.3065229,11.318 Z M94.6505229,21.074 L96.3065229,21.074 C97.4105285,21.074 98.3045195,20.7020037 98.9885229,19.958 C99.6365262,19.2379964 99.9605229,18.3080057 99.9605229,17.168 C99.9605229,16.0039942 99.6365262,15.0620036 98.9885229,14.342 C98.3165196,13.6099963 97.4225285,13.244 96.3065229,13.244 L94.6505229,13.244 L94.6505229,21.074 Z" id="RESPOND" fill="#222222"></path>
                                        <path d="M168.323523,11.318 L171.167523,20.336 L174.047523,11.318 L176.279523,11.318 L172.265523,23 L170.033523,23 L166.073523,11.318 L168.323523,11.318 Z M182.795523,11.084 C183.575527,11.084 184.28952,11.2129987 184.937523,11.471 C185.585526,11.7290013 186.143521,12.1099975 186.611523,12.614 C187.595528,13.6700053 188.087523,15.1819902 188.087523,17.15 C188.087523,19.1300099 187.595528,20.6599946 186.611523,21.74 C185.675518,22.748005 184.397531,23.252 182.777523,23.252 C181.169515,23.252 179.897528,22.7360052 178.961523,21.704 C177.977518,20.6359947 177.485523,19.1180098 177.485523,17.15 C177.485523,15.15799 177.977518,13.6340053 178.961523,12.578 C179.885528,11.581995 181.163515,11.084 182.795523,11.084 Z M185.891523,17.186 C185.891523,15.8419933 185.612526,14.8070036 185.054523,14.081 C184.49652,13.3549964 183.743528,12.992 182.795523,12.992 C181.847518,12.992 181.091526,13.3549964 180.527523,14.081 C179.96352,14.8070036 179.681523,15.8389933 179.681523,17.177 C179.681523,18.5150067 179.96352,19.5409964 180.527523,20.255 C181.091526,20.9690036 181.847518,21.326 182.795523,21.326 C183.743528,21.326 184.49652,20.9690036 185.054523,20.255 C185.612526,19.5409964 185.891523,18.5180067 185.891523,17.186 Z M189.041523,11.318 L198.401523,11.318 L198.401523,13.154 L194.783523,13.154 L194.783523,23 L192.659523,23 L192.659523,13.154 L189.041523,13.154 L189.041523,11.318 Z M200.165523,11.318 L207.689523,11.318 L207.689523,13.154 L202.289523,13.154 L202.289523,16.232 L207.347523,16.232 L207.347523,18.068 L202.289523,18.068 L202.289523,21.146 L207.689523,21.146 L207.689523,23 L200.165523,23 L200.165523,11.318 Z" id="VOTE" fill="#ABABAB"></path>
                                    </g>
                                </g>
                            </g>
                            <g id="Conversation/Pending-&amp;-Time-Remaining/Circular-Countdown/Participant-View-Copy" transform="translate(550.000000, 71.000000)">
                                <g id="Timer/Live-(small)-Copy" transform="translate(0.000000, -0.000000)"></g>
                            </g>
                        </g>
                    </g>
                    <g id="In-Between-Dots" transform="translate(473.000000, 748.000000)"></g>
                    <g id="Heatmap" transform="translate(136.000000, 325.000000)">
                        <g transform="translate(213.000000, 6.000000)" id="Heatmap-Copy-2">
                            <g transform="translate(0.000000, 21.000000)">
                                <g id="Dots"></g>
                            </g>
                        </g>
                    </g>
                    <g id="Question" transform="translate(2.000000, 30.000000)">
                        <g id=".messages-list-copy-9" transform="translate(120.000000, 25.000000)">
                            <g id="Message">
                                <g id="Square"></g>
                            </g>
                        </g>
                        <g id="Avatar/Moderator-Copy" transform="translate(0.000000, 25.000000)">
                            <g id="Page-1"></g>
                        </g>
                    </g>
                </g>
            </g>
        </g>
    </g>
</svg>