<?xml version="1.0" encoding="UTF-8"?>
<svg width="17px" height="18px" viewBox="0 0 17 18" version="1.1" xmlns="http://www.w3.org/2000/svg" xmlns:xlink="http://www.w3.org/1999/xlink">
    <!-- Generator: Sketch 48.2 (47327) - http://www.bohemiancoding.com/sketch -->
    <title>exports/icon-plus</title>
    <desc>Created with Sketch.</desc>
    <defs>
        <path d="M13.4583333,9.20833333 L13.4583333,7.79166667 C13.4583333,7.59982543 13.3882385,7.43381146 13.2480469,7.29361979 C13.1078552,7.15342812 12.9418412,7.08333333 12.75,7.08333333 L9.91666667,7.08333333 L9.91666667,4.25 C9.91666667,4.05815876 9.84657188,3.8921448 9.70638021,3.75195313 C9.56618854,3.61176145 9.40017457,3.54166667 9.20833333,3.54166667 L7.79166667,3.54166667 C7.59982543,3.54166667 7.43381146,3.61176145 7.29361979,3.75195313 C7.15342812,3.8921448 7.08333333,4.05815876 7.08333333,4.25 L7.08333333,7.08333333 L4.25,7.08333333 C4.05815876,7.08333333 3.8921448,7.15342812 3.75195313,7.29361979 C3.61176145,7.43381146 3.54166667,7.59982543 3.54166667,7.79166667 L3.54166667,9.20833333 C3.54166667,9.40017457 3.61176145,9.56618854 3.75195313,9.70638021 C3.8921448,9.84657188 4.05815876,9.91666667 4.25,9.91666667 L7.08333333,9.91666667 L7.08333333,12.75 C7.08333333,12.9418412 7.15342812,13.1078552 7.29361979,13.2480469 C7.43381146,13.3882385 7.59982543,13.4583333 7.79166667,13.4583333 L9.20833333,13.4583333 C9.40017457,13.4583333 9.56618854,13.3882385 9.70638021,13.2480469 C9.84657188,13.1078552 9.91666667,12.9418412 9.91666667,12.75 L9.91666667,9.91666667 L12.75,9.91666667 C12.9418412,9.91666667 13.1078552,9.84657188 13.2480469,9.70638021 C13.3882385,9.56618854 13.4583333,9.40017457 13.4583333,9.20833333 Z M15.860026,4.23893229 C16.6200125,5.5375499 17,6.9578916 17,8.5 C17,10.0421084 16.6200125,11.4642947 15.860026,12.7666016 C15.1000396,14.0689084 14.0689084,15.1000396 12.7666016,15.860026 C11.4642947,16.6200125 10.0421084,17 8.5,17 C6.9578916,17 5.5357053,16.6200125 4.23339844,15.860026 C2.93109158,15.1000396 1.8999604,14.0689084 1.13997396,12.7666016 C0.37998752,11.4642947 1.56319402e-12,10.0421084 1.56319402e-12,8.5 C1.56319402e-12,6.9578916 0.37998752,5.5357053 1.13997396,4.23339844 C1.8999604,2.93109158 2.93109158,1.8999604 4.23339844,1.13997396 C5.5357053,0.37998752 6.9578916,0 8.5,0 C10.0421084,0 11.4642947,0.37998752 12.7666016,1.13997396 C14.0689084,1.8999604 15.1000396,2.93293618 15.860026,4.23893229 Z" id="path-1"></path>
        <filter x="-2.9%" y="-2.9%" width="105.9%" height="111.8%" filterUnits="objectBoundingBox" id="filter-2">
            <feOffset dx="0" dy="1" in="SourceAlpha" result="shadowOffsetOuter1"></feOffset>
            <feColorMatrix values="0 0 0 0 0   0 0 0 0 0   0 0 0 0 0  0 0 0 0.1 0" type="matrix" in="shadowOffsetOuter1"></feColorMatrix>
        </filter>
    </defs>
    <g id="exports/attributes-left" stroke="none" stroke-width="1" fill="none" fill-rule="evenodd" transform="translate(0.000000, -7.000000)">
        <g id="Group-4">
            <g id="exports/icon-plus" transform="translate(0.000000, 7.000000)">
                <g id="ï•">
                    <use fill="black" fill-opacity="1" filter="url(#filter-2)" xlink:href="#path-1"></use>
                    <use fill="#34D321" fill-rule="evenodd" xlink:href="#path-1"></use>
                </g>
            </g>
        </g>
    </g>
</svg>